<svg width="119" height="104" viewBox="0 0 119 104" fill="none" xmlns="http://www.w3.org/2000/svg">
<g clip-path="url(#clip0_2917_69)">
<path d="M86.5102 4.96504C84.9067 3.39108 82.999 2.14755 80.8994 1.30744C78.814 0.439217 76.5712 -0.005504 74.3061 5.14124e-05C72.0393 -0.0014847 69.7944 0.436309 67.7002 1.2883C65.606 2.14028 63.7035 3.38972 62.102 4.96504L59.1699 7.84442L56.2376 4.96504C52.9717 1.91612 48.622 0.240969 44.1161 0.296915C39.6103 0.352861 35.305 2.13548 32.1186 5.26451C28.9322 8.39354 27.1169 12.6213 27.06 17.0461C27.003 21.4708 28.7089 25.7423 31.8137 28.9495L58.3139 54.9417C58.5451 55.1506 58.8478 55.2666 59.1619 55.2666C59.4761 55.2666 59.7787 55.1506 60.0098 54.9417L86.5102 28.9495C89.7399 25.7642 91.5532 21.4522 91.5532 16.9572C91.5532 12.4622 89.7399 8.1503 86.5102 4.96504ZM84.8143 27.2685L59.1699 52.4358L59.0272 52.2958L33.5254 27.2685C32.1455 25.9144 31.0506 24.3067 30.3034 22.5371C29.5562 20.7675 29.1711 18.8707 29.1704 16.955C29.1697 15.0392 29.5532 13.1422 30.299 11.372C31.0449 9.60186 32.1386 7.99332 33.5175 6.63821C34.8964 5.28309 36.5336 4.20794 38.3356 3.47416C40.1376 2.74039 42.0693 2.36234 44.0201 2.36161C45.9709 2.36089 47.9028 2.73749 49.7054 3.46994C51.508 4.20238 53.146 5.27632 54.526 6.63042L58.3139 10.3814C58.5483 10.5838 58.8498 10.6955 59.1619 10.6955C59.4741 10.6955 59.7755 10.5838 60.0098 10.3814L63.7979 6.64595C65.1768 5.29083 66.814 4.21573 68.6161 3.48195C70.4181 2.74818 72.3497 2.37013 74.3005 2.3694C76.2513 2.36868 78.1831 2.74528 79.9857 3.47773C81.7883 4.21017 83.4264 5.28411 84.8064 6.63821C86.1863 7.9923 87.2812 9.60004 88.0284 11.3696C88.7756 13.1392 89.1605 15.0361 89.1613 16.9518C89.162 18.8675 88.7785 20.7645 88.0326 22.5347C87.2868 24.3049 86.1932 25.9134 84.8143 27.2685Z" fill="black"/>
<path d="M60.1366 91.6862C60.1125 90.0306 59.537 88.4283 58.498 87.1241C57.4591 85.82 56.0138 84.8858 54.3832 84.4644L54.0979 84.3866L53.7968 71.4527C53.7458 68.6985 52.6095 66.0708 50.6269 64.122L43.146 56.7912C41.5521 55.2276 39.5028 54.1889 37.2817 53.8185L33.9057 53.2426C33.435 53.1513 33.0005 52.9299 32.6535 52.6045L22.0978 42.1921C21.4754 41.5787 20.7336 41.0945 19.9168 40.7683C19.1 40.4421 18.2247 40.2806 17.343 40.2932H17.026H16.4554L14.5376 32.6979L14.8705 22.9703C14.9474 20.4984 14.0227 18.0976 12.2994 16.2944C10.576 14.4912 8.19473 13.4329 5.6778 13.3516H5.56685C4.29109 13.3471 3.06425 13.8332 2.14892 14.7059C1.23358 15.5786 0.702446 16.7685 0.669317 18.0209L0.0195312 38.2543C0.0199185 38.7255 0.0730308 39.1953 0.177987 39.6551L1.50939 52.1064C1.97172 56.3097 3.88444 60.2311 6.92988 63.2193L19.6095 75.6706C21.7313 77.7491 23.1103 80.4467 23.5401 83.3593L23.7304 84.6667L23.4134 84.7601C21.8123 85.2205 20.4043 86.1739 19.3969 87.4798C18.3896 88.7857 17.8362 90.3749 17.8185 92.013L17.9928 96.4488C18.0179 98.4606 18.8548 100.38 20.3197 101.787C21.7846 103.193 23.758 103.972 25.8067 103.951L52.7507 103.671C54.7815 103.642 56.7197 102.832 58.1484 101.414C59.5771 99.9969 60.382 98.0853 60.3901 96.0909L60.1366 91.6862ZM21.1785 74.1298L8.49896 61.6784C5.82644 59.0473 4.14894 55.599 3.74412 51.9041L2.27013 38.0987L2.92001 18.0364C2.93535 17.3853 3.20818 16.7657 3.68075 16.3088C4.20146 15.8217 4.89526 15.5536 5.61434 15.5617C7.53287 15.6307 9.34589 16.4417 10.6581 17.8178C11.9704 19.1938 12.6755 21.0235 12.6199 22.908L12.287 32.729V32.9002C12.287 32.9002 12.287 32.978 12.287 33.0714L14.2682 40.9469L14.0146 41.087C13.5076 41.3642 13.0388 41.7043 12.6199 42.0987C11.381 43.3233 10.6857 44.9795 10.6857 46.7057C10.6857 48.4319 11.381 50.088 12.6199 51.3127L25.6481 64.1064C25.8627 64.3045 26.1461 64.4148 26.4406 64.4148C26.7351 64.4148 27.0185 64.3045 27.233 64.1064C27.4421 63.8995 27.5594 63.6197 27.5594 63.3282C27.5594 63.0367 27.4421 62.757 27.233 62.55L14.1731 49.8185C13.7397 49.4262 13.3915 48.9519 13.1494 48.4242C12.9073 47.8964 12.7764 47.326 12.7644 46.7473C12.7524 46.1686 12.8597 45.5935 13.0797 45.0565C13.2997 44.5195 13.6279 44.0317 14.0447 43.6224C14.4615 43.2131 14.9582 42.8907 15.5051 42.6747C16.0519 42.4586 16.6376 42.3533 17.2269 42.3651C17.8162 42.3769 18.3971 42.5055 18.9345 42.7432C19.472 42.9809 19.9549 43.3229 20.3544 43.7485L30.926 54.1298C31.5935 54.7851 32.452 55.2202 33.3826 55.3749L36.7586 55.9508C38.5214 56.2538 40.1475 57.0793 41.4183 58.3166L48.8835 65.6473C50.4621 67.1935 51.3708 69.2793 51.4193 71.4683L51.7205 84.1998L25.8383 84.4644L25.6322 83.0792C25.1376 79.7037 23.5546 76.5727 21.1152 74.1454L21.1785 74.1298ZM52.6557 101.492L25.7116 101.772C24.2695 101.776 22.8841 101.221 21.8571 100.227C20.83 99.2326 20.2443 97.8804 20.2276 96.4644L20.0533 92.0442C20.0574 90.6294 20.6282 89.2729 21.6425 88.2681C22.6568 87.2633 24.0331 86.6909 25.4738 86.6745L52.4179 86.3944C53.8572 86.3943 55.2385 86.9515 56.2621 87.9451C57.2858 88.9386 57.8693 90.2885 57.886 91.7018L58.0603 96.0597C58.0687 97.4936 57.4978 98.8722 56.4728 99.8934C55.4478 100.915 54.0523 101.495 52.5922 101.507L52.6557 101.492Z" fill="black"/>
<path d="M57.9961 96.1377C58.0042 98.1321 58.8091 100.044 60.2378 101.461C61.6665 102.879 63.6047 103.689 65.6355 103.718L92.5795 103.998C94.6282 104.018 96.6016 103.24 98.0665 101.834C99.5314 100.427 100.368 98.5075 100.393 96.4957L100.568 92.0599C100.55 90.4218 99.9966 88.8326 98.9893 87.5267C97.9819 86.2208 96.5739 85.2673 94.9728 84.807L94.6559 84.7136L94.8461 83.4062C95.2759 80.4936 96.6549 77.796 98.7767 75.7175L111.456 63.2661C114.502 60.2779 116.414 56.3566 116.877 52.1533L118.208 39.702C118.313 39.2422 118.366 38.7724 118.367 38.3012L117.717 18.0677C117.684 16.8153 117.153 15.6255 116.237 14.7528C115.322 13.8801 114.095 13.394 112.819 13.3985H112.708C110.191 13.4797 107.81 14.5381 106.087 16.3413C104.363 18.1445 103.439 20.5453 103.516 23.0171L103.849 32.7448L101.931 40.3401H101.36H101.043C100.162 40.3275 99.2862 40.489 98.4694 40.8152C97.6526 41.1414 96.9108 41.6256 96.2884 42.2389L85.7327 52.6202C85.3857 52.9457 84.9512 53.1671 84.4805 53.2584L81.1045 53.8342C78.8833 54.2046 76.8342 55.2434 75.2403 56.807L67.7593 64.1377C65.7767 66.0865 64.6404 68.7142 64.5894 71.4685L64.2883 84.4491L64.003 84.5269C62.3724 84.9483 60.9271 85.8824 59.8882 87.1866C58.8492 88.4907 58.2737 90.093 58.2496 91.7487L57.9961 96.1377ZM92.5479 83.0794L92.3419 84.4646L66.4755 84.2L66.7767 71.4685C66.8252 69.2795 67.7339 67.1937 69.3125 65.6475L76.7777 58.3167C78.0486 57.0795 79.6747 56.2539 81.4374 55.951L84.8134 55.3751C85.744 55.2204 86.6025 54.7852 87.27 54.13L97.8416 43.7487C98.672 42.997 99.7663 42.5898 100.895 42.6124C102.025 42.6349 103.101 43.0855 103.9 43.8697C104.698 44.6539 105.157 45.711 105.18 46.8199C105.203 47.9287 104.788 49.0032 104.023 49.8187L90.9946 62.6125C90.7855 62.8194 90.6683 63.0992 90.6683 63.3907C90.6683 63.6822 90.7855 63.9619 90.9946 64.1689C91.2092 64.367 91.4926 64.4773 91.7871 64.4773C92.0816 64.4773 92.365 64.367 92.5795 64.1689L105.608 51.3751C106.847 50.1505 107.542 48.4943 107.542 46.7681C107.542 45.0419 106.847 43.3857 105.608 42.1611C105.189 41.7667 104.72 41.4267 104.213 41.1494L103.96 41.0093L105.941 33.1339C105.941 33.0405 105.941 32.9626 105.941 32.9626V32.7915L105.608 22.9704C105.552 21.086 106.257 19.2563 107.57 17.8802C108.882 16.5041 110.695 15.6932 112.613 15.6241C113.332 15.6161 114.026 15.8841 114.547 16.3712C115.02 16.8281 115.292 17.4478 115.308 18.0988L115.958 38.1611L114.484 51.9666C114.079 55.6614 112.401 59.1098 109.729 61.7409L97.0491 74.1922C94.6245 76.6092 93.0478 79.7224 92.5479 83.0794ZM60.2467 96.0755L60.421 91.7175C60.4377 90.3042 61.0212 88.9544 62.0448 87.9608C63.0685 86.9672 64.4498 86.41 65.8891 86.4101L92.8332 86.6903C94.2739 86.7066 95.6501 87.2791 96.6644 88.2839C97.6787 89.2887 98.2496 90.6451 98.2537 92.0599L98.0794 96.4801C98.0626 97.8962 97.477 99.2484 96.4499 100.242C95.4228 101.236 94.0375 101.792 92.5954 101.788L65.6513 101.507C64.2051 101.479 62.8282 100.893 61.8172 99.8775C60.8063 98.8614 60.2422 97.496 60.2467 96.0755Z" fill="black"/>
</g>
<defs>
<clipPath id="clip0_2917_69">
<rect width="118.237" height="104" fill="white" transform="translate(0.00390625)"/>
</clipPath>
</defs>
</svg>
